<?xml version="1.0" encoding="utf-8"?>
<!-- Svg Vector Icons : http://www.onlinewebfonts.com/icon -->
<!DOCTYPE svg PUBLIC "-//W3C//DTD SVG 1.1//EN" "http://www.w3.org/Graphics/SVG/1.1/DTD/svg11.dtd">
<svg  width="25" height="25" version="1.1" xmlns="http://www.w3.org/2000/svg" xmlns:xlink="http://www.w3.org/1999/xlink" x="0px" y="0px" viewBox="0 0 1000 1000" enable-background="new 0 0 1000 1000" xml:space="preserve">
<metadata> Svg Vector Icons : http://www.onlinewebfonts.com/icon </metadata>
<g><path d="M507.2,648.4v-84.9c0-60.5,49.1-109.6,109.6-109.6h315.7V302.3c0-30.9-24.5-55.9-54.7-55.9H64.7c-30.2,0-54.7,25-54.7,55.9v611.4c0,30.9,24.5,55.9,54.7,55.9h813.1c30.2,0,54.7-25,54.7-55.9V758H616.8C556.2,758,507.2,708.9,507.2,648.4z"/><path d="M939,491H601.3c-28.2,0-51,27.1-51,60.6v112.9c0,33.5,22.8,60.6,51,60.6H939c28.2,0,51-27.2,51-60.6V551.7C990,518.2,967.2,491,939,491z M682.9,648.2c-22.1,0-40.1-17.9-40.1-40.1s17.9-40.1,40.1-40.1c22.1,0,40.1,17.9,40.1,40.1C722.9,630.2,705,648.2,682.9,648.2z"/><path d="M821.5,212.2l-22.6-78.8c0,0-20.5-39-78.1-20.5c-57.5,18.5-356.8,99.3-356.8,99.3H821.5z"/><path d="M630.5,102.6l-26.7-51.4c0,0-30.8-34.9-69.9-14.4c-39,20.5-351.3,174.6-351.3,174.6l59.6,0.7L630.5,102.6z"/></g>
</svg>